<svg width="97" height="63" viewBox="0 0 97 63" fill="none" xmlns="http://www.w3.org/2000/svg">
<path d="M59.6625 18.12C57.5658 7.77 48.2233 0 37 0C28.0892 0 20.35 4.92 16.4958 12.12C7.215 13.08 0 20.73 0 30C0 39.93 8.29417 48 18.5 48H58.5833C67.0933 48 74 41.28 74 33C74 25.08 67.6792 18.66 59.6625 18.12Z" fill="#E2E2E2"/>
<path d="M82.6625 33.12C80.5658 22.77 71.2233 15 60 15C51.0892 15 43.35 19.92 39.4958 27.12C30.215 28.08 23 35.73 23 45C23 54.93 31.2942 63 41.5 63H81.5833C90.0933 63 97 56.28 97 48C97 40.08 90.6792 33.66 82.6625 33.12Z" fill="#D6D6D6"/>
</svg>
