<svg width="111" height="95" viewBox="0 0 111 95" fill="none" xmlns="http://www.w3.org/2000/svg">
<path d="M63.68 20.08C61.8 8.72 51.88 0 40 0C31.28 0 23.32 4.72 19.12 12.24C8.36 13.64 0 22.96 0 34C0 46.12 9.88 56 22 56H62C71.92 56 80 47.92 80 38C80 28.64 72.84 20.92 63.68 20.08ZM64 60.04C66.2 60.04 68 61.84 68 64.04C68 66.24 66.2 68.04 64 68.04C61.8 68.04 60 66.24 60 64.04C60 61.84 61.8 60.04 64 60.04ZM20 72.04C22.2 72.04 24 73.84 24 76.04C24 78.24 22.2 80.04 20 80.04C17.8 80.04 16 78.24 16 76.04C16 73.84 17.8 72.04 20 72.04ZM16 60.04H52C54.2 60.04 56 61.84 56 64.04C56 66.24 54.2 68.04 52 68.04H16C13.8 68.04 12 66.24 12 64.04C12 61.84 13.8 60.04 16 60.04ZM32 72.04H60C62.2 72.04 64 73.84 64 76.04C64 78.24 62.2 80.04 60 80.04H32C29.8 80.04 28 78.24 28 76.04C28 73.84 29.8 72.04 32 72.04Z" fill="#ABABAB" fill-opacity="0.45"/>
<path d="M94.68 34.08C92.8 22.72 82.88 14 71 14C62.28 14 54.32 18.72 50.12 26.24C39.36 27.64 31 36.96 31 48C31 60.12 40.88 70 53 70H93C102.92 70 111 61.92 111 52C111 42.64 103.84 34.92 94.68 34.08ZM95 74.04C97.2 74.04 99 75.84 99 78.04C99 80.24 97.2 82.04 95 82.04C92.8 82.04 91 80.24 91 78.04C91 75.84 92.8 74.04 95 74.04ZM51 86.04C53.2 86.04 55 87.84 55 90.04C55 92.24 53.2 94.04 51 94.04C48.8 94.04 47 92.24 47 90.04C47 87.84 48.8 86.04 51 86.04ZM47 74.04H83C85.2 74.04 87 75.84 87 78.04C87 80.24 85.2 82.04 83 82.04H47C44.8 82.04 43 80.24 43 78.04C43 75.84 44.8 74.04 47 74.04ZM63 86.04H91C93.2 86.04 95 87.84 95 90.04C95 92.24 93.2 94.04 91 94.04H63C60.8 94.04 59 92.24 59 90.04C59 87.84 60.8 86.04 63 86.04Z" fill="#ABABAB" fill-opacity="0.45"/>
</svg>
