<svg width="88" height="90" viewBox="0 0 88 90" fill="none" xmlns="http://www.w3.org/2000/svg">
<path d="M52.58 87.56C51.48 88.1467 50.3624 88.2376 49.2272 87.8328C48.0891 87.4309 47.2267 86.68 46.64 85.58L40.04 72.38C39.4533 71.28 39.3624 70.1624 39.7672 69.0272C40.1691 67.8891 40.92 67.0267 42.02 66.44C43.12 65.8533 44.2376 65.7624 45.3728 66.1672C46.5109 66.5691 47.3733 67.32 47.96 68.42L54.56 81.62C55.1467 82.72 55.2391 83.8376 54.8372 84.9728C54.4324 86.1109 53.68 86.9733 52.58 87.56ZM78.98 87.56C77.88 88.1467 76.7624 88.2376 75.6272 87.8328C74.4891 87.4309 73.6267 86.68 73.04 85.58L66.44 72.38C65.8533 71.28 65.7624 70.1624 66.1672 69.0272C66.5691 67.8891 67.32 67.0267 68.42 66.44C69.52 65.8533 70.6376 65.7624 71.7728 66.1672C72.9109 66.5691 73.7733 67.32 74.36 68.42L80.96 81.62C81.5467 82.72 81.6391 83.8376 81.2372 84.9728C80.8324 86.1109 80.08 86.9733 78.98 87.56ZM26.18 87.56C25.08 88.1467 23.9624 88.2376 22.8272 87.8328C21.6891 87.4309 20.8267 86.68 20.24 85.58L13.64 72.38C13.0533 71.28 12.9624 70.1624 13.3672 69.0272C13.7691 67.8891 14.52 67.0267 15.62 66.44C16.72 65.8533 17.8376 65.7624 18.9728 66.1672C20.1109 66.5691 20.9733 67.32 21.56 68.42L28.16 81.62C28.7467 82.72 28.8391 83.8376 28.4372 84.9728C28.0324 86.1109 27.28 86.9733 26.18 87.56ZM24.2 61.6C17.5267 61.6 11.8257 59.2343 7.0972 54.5028C2.36573 49.7743 0 44.0733 0 37.4C0 31.3133 2.01667 25.9967 6.05 21.45C10.0833 16.9033 15.07 14.2267 21.01 13.42C23.3567 9.24 26.5657 5.9576 30.6372 3.5728C34.7057 1.19093 39.16 0 44 0C50.6 0 56.3376 2.10907 61.2128 6.3272C66.0909 10.5424 69.0433 15.8033 70.07 22.11C75.13 22.55 79.3833 24.64 82.83 28.38C86.2767 32.12 88 36.5933 88 41.8C88 47.3 86.0757 51.9757 82.2272 55.8272C78.3757 59.6757 73.7 61.6 68.2 61.6H24.2Z" fill="#A8A8A8"/>
<rect x="11.7256" y="68.7065" width="8.68377" height="23.4098" rx="4.34189" transform="rotate(-27 11.7256 68.7065)" fill="#8CABD9"/>
<rect x="38" y="68.9424" width="8.68377" height="23.4098" rx="4.34189" transform="rotate(-27 38 68.9424)" fill="#8CABD9"/>
<rect x="64" y="68.9424" width="8.68377" height="23.4098" rx="4.34189" transform="rotate(-27 64 68.9424)" fill="#8CABD9"/>
</svg>
