<svg width="80" height="90" viewBox="0 0 80 90" fill="none" xmlns="http://www.w3.org/2000/svg">
<path d="M12 64C12 66.2 13.8 68 16 68C18.2 68 20 66.2 20 64C20 61.8 18.2 60 16 60C13.8 60 12 61.8 12 64ZM60 64C60 66.2 61.8 68 64 68C66.2 68 68 66.2 68 64C68 61.8 66.2 60 64 60C61.8 60 60 61.8 60 64ZM24 80C24 82.2 25.8 84 28 84C30.2 84 32 82.2 32 80C32 77.8 30.2 76 28 76C25.8 76 24 77.8 24 80ZM36 64C36 66.2 37.8 68 40 68C42.2 68 44 66.2 44 64C44 61.8 42.2 60 40 60C37.8 60 36 61.8 36 64ZM48 80C48 82.2 49.8 84 52 84C54.2 84 56 82.2 56 80C56 77.8 54.2 76 52 76C49.8 76 48 77.8 48 80ZM62 56H22C9.88 56 0 46.12 0 34C0 22.96 8.36 13.64 19.12 12.24C23.32 4.72 31.28 0 40 0C51.88 0 61.8 8.72 63.68 20.08C72.84 20.92 80 28.64 80 38C80 47.92 71.92 56 62 56Z" fill="#B8B8B8"/>
<circle cx="40" cy="64" r="4" fill="white"/>
<circle cx="64" cy="64" r="4" fill="white"/>
<circle cx="52" cy="80" r="4" fill="white"/>
<circle cx="28" cy="80" r="4" fill="white"/>
<rect x="14.3491" y="56" width="9.55166" height="16.4127" rx="4.77583" transform="rotate(29 14.3491 56)" fill="#8CABD9"/>
<rect x="51.957" y="71" width="9.55166" height="16.4127" rx="4.77583" transform="rotate(29 51.957 71)" fill="#8CABD9"/>
</svg>
