<svg width="80" height="88" viewBox="0 0 80 88" fill="none" xmlns="http://www.w3.org/2000/svg">
<path d="M63.68 20.08C61.8 8.72 51.88 0 40 0C31.28 0 23.32 4.72 19.12 12.24C8.36 13.64 0 22.96 0 34C0 46.12 9.88 56 22 56H62C71.92 56 80 47.92 80 38C80 28.64 72.84 20.92 63.68 20.08Z" fill="#8D8D8D"/>
<path d="M51.2002 60L39.6002 73.28L47.6002 77.28L38.2002 88H48.8002L60.4002 74.72L52.4002 70.72L61.8002 60H51.2002Z" fill="#8D8D8D"/>
<path d="M27.2002 60L15.6002 73.28L23.6002 77.28L14.2002 88H24.8002L36.4002 74.72L28.4002 70.72L37.8002 60H27.2002Z" fill="#8D8D8D"/>
<path d="M61.5 60L52.5 70.5L59.5 74.5L48.5 88H38L47.5 77L39.5 73.5L51 60H61.5Z" fill="#BA9924"/>
<path d="M37.5 60L28.5 70.5L35.5 74.5L24.5 88H14L23.5 77L15.5 73.5L27 60H37.5Z" fill="#BA9924"/>
</svg>
