<svg width="88" height="88" viewBox="0 0 88 88" fill="none" xmlns="http://www.w3.org/2000/svg">
<path d="M40 12V4C40 1.8 41.8 0 44 0C46.2 0 48 1.8 48 4V12C48 14.2 46.2 16 44 16C41.8 16 40 14.2 40 12ZM69.44 24.2L75.08 18.52C76.64 16.96 76.64 14.44 75.08 12.88C73.52 11.32 71 11.32 69.44 12.88L63.8 18.56C62.24 20.12 62.24 22.64 63.8 24.2C65.36 25.76 67.88 25.76 69.44 24.2ZM84 40H76C73.8 40 72 41.8 72 44C72 46.2 73.8 48 76 48H84C86.2 48 88 46.2 88 44C88 41.8 86.2 40 84 40ZM44 72C41.8 72 40 73.8 40 76V84C40 86.2 41.8 88 44 88C46.2 88 48 86.2 48 84V76C48 73.8 46.2 72 44 72ZM18.56 24.2L12.88 18.56C11.32 17 11.32 14.44 12.88 12.92C14.44 11.4 17 11.36 18.52 12.92L24.16 18.56C25.72 20.12 25.72 22.68 24.16 24.2C22.6 25.72 20.08 25.76 18.56 24.2ZM63.8 63.8C62.24 65.36 62.24 67.92 63.8 69.44L69.44 75.08C71 76.64 73.56 76.64 75.08 75.08C76.64 73.52 76.64 70.96 75.08 69.44L69.44 63.8C67.92 62.24 65.36 62.24 63.8 63.8ZM4 48H12C14.2 48 16 46.2 16 44C16 41.8 14.2 40 12 40H4C1.8 40 0 41.8 0 44C0 46.2 1.8 48 4 48ZM18.56 75.12L24.2 69.48C25.76 67.92 25.76 65.36 24.2 63.84C22.64 62.32 20.08 62.28 18.56 63.84L12.92 69.48C11.36 71.04 11.36 73.6 12.92 75.12C14.44 76.68 17 76.68 18.56 75.12ZM44 20C30.76 20 20 30.76 20 44C20 57.24 30.76 68 44 68C57.24 68 68 57.24 68 44C68 30.76 57.24 20 44 20Z" fill="#FFC700"/>
</svg>
