<svg width="132" height="93" viewBox="0 0 132 93" fill="none" xmlns="http://www.w3.org/2000/svg">
<path d="M65 12V4C65 1.8 66.8 0 69 0C71.2 0 73 1.8 73 4V12C73 14.2 71.2 16 69 16C66.8 16 65 14.2 65 12ZM94.44 24.2L100.08 18.52C101.64 16.96 101.64 14.44 100.08 12.88C98.52 11.32 96 11.32 94.44 12.88L88.8 18.56C87.24 20.12 87.24 22.64 88.8 24.2C90.36 25.76 92.88 25.76 94.44 24.2ZM109 40H101C98.8 40 97 41.8 97 44C97 46.2 98.8 48 101 48H109C111.2 48 113 46.2 113 44C113 41.8 111.2 40 109 40ZM69 72C66.8 72 65 73.8 65 76V84C65 86.2 66.8 88 69 88C71.2 88 73 86.2 73 84V76C73 73.8 71.2 72 69 72ZM43.56 24.2L37.88 18.56C36.32 17 36.32 14.44 37.88 12.92C39.44 11.4 42 11.36 43.52 12.92L49.16 18.56C50.72 20.12 50.72 22.68 49.16 24.2C47.6 25.72 45.08 25.76 43.56 24.2ZM88.8 63.8C87.24 65.36 87.24 67.92 88.8 69.44L94.44 75.08C96 76.64 98.56 76.64 100.08 75.08C101.64 73.52 101.64 70.96 100.08 69.44L94.44 63.8C92.92 62.24 90.36 62.24 88.8 63.8ZM29 48H37C39.2 48 41 46.2 41 44C41 41.8 39.2 40 37 40H29C26.8 40 25 41.8 25 44C25 46.2 26.8 48 29 48ZM43.56 75.12L49.2 69.48C50.76 67.92 50.76 65.36 49.2 63.84C47.64 62.32 45.08 62.28 43.56 63.84L37.92 69.48C36.36 71.04 36.36 73.6 37.92 75.12C39.44 76.68 42 76.68 43.56 75.12ZM69 20C55.76 20 45 30.76 45 44C45 57.24 55.76 68 69 68C82.24 68 93 57.24 93 44C93 30.76 82.24 20 69 20Z" fill="#FFC700"/>
<path d="M119.794 67.4775C118.009 58.6369 110.055 52 100.5 52C92.9137 52 86.325 56.2025 83.0437 62.3525C75.1425 63.1725 69 69.7069 69 77.625C69 86.1069 76.0613 93 84.75 93H118.875C126.12 93 132 87.26 132 80.1875C132 73.4225 126.619 67.9388 119.794 67.4775Z" fill="#E2E2E2"/>
<path d="M50.7938 47.4775C49.0088 38.6369 41.055 32 31.5 32C23.9137 32 17.325 36.2025 14.0437 42.3525C6.1425 43.1725 0 49.7069 0 57.625C0 66.1069 7.06125 73 15.75 73H49.875C57.12 73 63 67.26 63 60.1875C63 53.4225 57.6188 47.9388 50.7938 47.4775Z" fill="#E2E2E2"/>
</svg>
