<svg width="80" height="68" viewBox="0 0 80 68" fill="none" xmlns="http://www.w3.org/2000/svg">
<path d="M50 56C50 62.6 44.6 68 38 68C31.4 68 26 62.6 26 56H34C34 58.2 35.8 60 38 60C40.2 60 42 58.2 42 56C42 53.8 40.2 52 38 52H0V44H38C44.6 44 50 49.4 50 56ZM68 14C68 6.28 61.72 0 54 0C46.28 0 40 6.28 40 14H48C48 10.68 50.68 8 54 8C57.32 8 60 10.68 60 14C60 17.32 57.32 20 54 20H0V28H54C61.72 28 68 21.72 68 14ZM66 32H0V40H66C69.32 40 72 42.68 72 46C72 49.32 69.32 52 66 52V60C73.72 60 80 53.72 80 46C80 38.28 73.72 32 66 32Z" fill="#B8E5EB"/>
</svg>
